<?xml version="1.0" encoding="UTF-8"?>
<!DOCTYPE svg PUBLIC "-//W3C//DTD SVG 1.1//EN" "http://www.w3.org/Graphics/SVG/1.1/DTD/svg11.dtd">
<!-- Creator: CorelDRAW -->
<svg xmlns="http://www.w3.org/2000/svg" xml:space="preserve" width="500px" height="500px" version="1.1" style="shape-rendering:geometricPrecision; text-rendering:geometricPrecision; image-rendering:optimizeQuality; fill-rule:evenodd; clip-rule:evenodd"
viewBox="0 0 306.77 306.77"
 xmlns:xlink="http://www.w3.org/1999/xlink"
 xmlns:xodm="http://www.corel.com/coreldraw/odm/2003">
 <defs>
  <style type="text/css">
   <![CDATA[
    .fil0 {fill:none}
    .fil1 {fill:#589EED}
    .fil2 {fill:#F4F4F4;fill-rule:nonzero}
   ]]>
  </style>
 </defs>
 <g id="Layer_x0020_1">
  <metadata id="CorelCorpID_0Corel-Layer"/>
  <g id="_2323024133712">
   <rect class="fil0" width="306.77" height="306.77"/>
   <g>
    <circle class="fil1" cx="153.39" cy="153.39" r="120.04"/>
    <g>
     <path class="fil2" d="M38.41 60.09l0.37 0.01 0.37 0.03 0.36 0.05 0.35 0.06 0.35 0.08 0.34 0.1 0.34 0.11 0.32 0.13 0.32 0.15 0.31 0.15 0.31 0.18 0.29 0.19 0.28 0.2 0.27 0.21 0.27 0.23 0.25 0.24 0.24 0.25 0.22 0.26 0.22 0.27 0.2 0.29 0.19 0.29 0.17 0.3 0.16 0.31 0.15 0.32 0.13 0.33 0.11 0.34 0.1 0.34 0.08 0.35 0.06 0.35 0.05 0.36 0.03 0.37 0.01 0.37 0 0 -0.01 0.37 -0.03 0.36 -0.05 0.36 -0.06 0.36 -0.08 0.35 -0.1 0.34 -0.11 0.33 -0.13 0.33 -0.15 0.32 -0.16 0.31 -0.17 0.3 -0.19 0.3 -0.2 0.28 -0.22 0.27 -0.22 0.27 -0.24 0.25 -0.25 0.23 -0.27 0.23 -0.27 0.22 -0.28 0.2 -0.29 0.19 -0.31 0.17 -0.31 0.16 -0.32 0.14 -0.32 0.13 -0.34 0.12 -0.34 0.09 -0.35 0.09 -0.35 0.06 -0.36 0.05 -0.37 0.02 -0.37 0.01 0 0 -0.37 -0.01 -0.36 -0.02 -0.36 -0.05 -0.36 -0.06 -0.35 -0.09 -0.34 -0.09 -0.33 -0.12 -0.33 -0.13 -0.32 -0.14 -0.31 -0.16 -0.3 -0.17 -0.3 -0.19 -0.28 -0.2 -0.27 -0.22 -0.26 -0.23 -0.25 -0.23 -0.24 -0.25 -0.23 -0.27 -0.21 -0.27 -0.21 -0.28 -0.18 -0.3 -0.18 -0.3 -0.16 -0.31 -0.14 -0.32 -0.13 -0.33 -0.12 -0.33 -0.1 -0.34 -0.08 -0.35 -0.06 -0.36 -0.05 -0.36 -0.02 -0.36 -0.01 -0.37 0 0 0.01 -0.37 0.02 -0.37 0.05 -0.36 0.06 -0.35 0.08 -0.35 0.1 -0.34 0.12 -0.34 0.13 -0.33 0.14 -0.32 0.16 -0.31 0.18 -0.3 0.18 -0.29 0.21 -0.29 0.21 -0.27 0.23 -0.26 0.24 -0.25 0.25 -0.24 0.26 -0.23 0.27 -0.21 0.28 -0.2 0.3 -0.19 0.3 -0.18 0.31 -0.15 0.32 -0.15 0.33 -0.13 0.33 -0.11 0.34 -0.1 0.35 -0.08 0.36 -0.06 0.36 -0.05 0.36 -0.03 0.37 -0.01 0 0zm51.23 9.02l-51.23 0 0 -3.61 51.23 0 0 3.61zm7.22 -1.8l-0.01 0.37 -0.03 0.36 -0.05 0.36 -0.06 0.36 -0.08 0.35 -0.1 0.34 -0.11 0.33 -0.13 0.33 -0.15 0.32 -0.16 0.31 -0.17 0.3 -0.19 0.29 -0.2 0.29 -0.21 0.27 -0.23 0.26 -0.24 0.25 -0.25 0.24 -0.26 0.23 -0.28 0.21 -0.28 0.21 -0.29 0.18 -0.3 0.18 -0.31 0.16 -0.32 0.14 -0.33 0.13 -0.34 0.12 -0.34 0.09 -0.35 0.09 -0.35 0.06 -0.36 0.05 -0.37 0.02 -0.37 0.01 0 0 -0.37 -0.01 -0.36 -0.02 -0.36 -0.05 -0.36 -0.06 -0.35 -0.09 -0.34 -0.09 -0.34 -0.12 -0.32 -0.13 -0.32 -0.14 -0.31 -0.16 -0.31 -0.18 -0.29 -0.18 -0.28 -0.21 -0.27 -0.21 -0.27 -0.23 -0.25 -0.24 -0.24 -0.25 -0.22 -0.26 -0.22 -0.27 -0.2 -0.29 -0.19 -0.29 -0.17 -0.3 -0.16 -0.31 -0.15 -0.32 -0.12 -0.33 -0.12 -0.33 -0.1 -0.34 -0.08 -0.35 -0.06 -0.36 -0.05 -0.36 -0.02 -0.36 -0.01 -0.37 0 0 0.01 -0.37 0.02 -0.37 0.05 -0.36 0.06 -0.35 0.08 -0.35 0.1 -0.34 0.12 -0.34 0.12 -0.32 0.15 -0.32 0.16 -0.31 0.17 -0.31 0.19 -0.29 0.2 -0.28 0.22 -0.28 0.22 -0.26 0.24 -0.25 0.25 -0.24 0.27 -0.23 0.27 -0.21 0.28 -0.2 0.29 -0.19 0.31 -0.17 0.31 -0.16 0.32 -0.15 0.32 -0.13 0.34 -0.11 0.34 -0.1 0.35 -0.08 0.36 -0.06 0.36 -0.05 0.36 -0.03 0.37 -0.01 0 0 0.37 0.01 0.37 0.03 0.36 0.05 0.35 0.06 0.35 0.08 0.34 0.1 0.34 0.11 0.33 0.13 0.32 0.15 0.31 0.16 0.3 0.17 0.29 0.19 0.28 0.2 0.28 0.21 0.26 0.23 0.25 0.24 0.24 0.25 0.23 0.26 0.21 0.28 0.2 0.28 0.19 0.29 0.17 0.31 0.16 0.31 0.15 0.32 0.13 0.32 0.11 0.34 0.1 0.34 0.08 0.35 0.06 0.35 0.05 0.36 0.03 0.37 0.01 0.37 0 0zm-9.02 51.23l0 -51.23 3.61 0 0 51.23 -3.61 0zm1.8 7.21l-0.37 -0.01 -0.36 -0.03 -0.36 -0.04 -0.36 -0.06 -0.35 -0.09 -0.34 -0.09 -0.33 -0.12 -0.33 -0.13 -0.32 -0.14 -0.31 -0.16 -0.3 -0.17 -0.3 -0.19 -0.28 -0.2 -0.27 -0.22 -0.26 -0.23 -0.25 -0.23 -0.24 -0.26 -0.23 -0.26 -0.22 -0.27 -0.2 -0.28 -0.18 -0.3 -0.18 -0.3 -0.16 -0.31 -0.14 -0.32 -0.13 -0.33 -0.12 -0.33 -0.1 -0.34 -0.08 -0.35 -0.06 -0.36 -0.05 -0.36 -0.02 -0.36 -0.01 -0.37 0 0 0.01 -0.37 0.02 -0.37 0.05 -0.36 0.06 -0.35 0.08 -0.35 0.1 -0.35 0.12 -0.33 0.13 -0.33 0.14 -0.32 0.16 -0.31 0.18 -0.3 0.18 -0.29 0.2 -0.29 0.22 -0.27 0.23 -0.26 0.24 -0.25 0.25 -0.24 0.26 -0.23 0.27 -0.21 0.28 -0.2 0.3 -0.19 0.3 -0.18 0.31 -0.16 0.32 -0.14 0.33 -0.13 0.33 -0.11 0.34 -0.1 0.35 -0.08 0.36 -0.06 0.36 -0.05 0.36 -0.03 0.37 -0.01 0 0 0.37 0.01 0.37 0.03 0.36 0.05 0.35 0.06 0.35 0.08 0.34 0.1 0.34 0.11 0.32 0.13 0.32 0.14 0.31 0.16 0.31 0.18 0.29 0.19 0.28 0.2 0.27 0.21 0.27 0.23 0.25 0.24 0.24 0.25 0.22 0.26 0.22 0.27 0.2 0.29 0.19 0.29 0.17 0.3 0.16 0.31 0.15 0.32 0.13 0.33 0.11 0.33 0.1 0.35 0.08 0.35 0.06 0.35 0.05 0.36 0.03 0.37 0.01 0.37 0 0 -0.01 0.37 -0.03 0.36 -0.05 0.36 -0.06 0.36 -0.08 0.35 -0.1 0.34 -0.11 0.33 -0.13 0.33 -0.15 0.32 -0.16 0.31 -0.17 0.3 -0.19 0.3 -0.2 0.28 -0.22 0.27 -0.22 0.26 -0.24 0.26 -0.25 0.23 -0.27 0.23 -0.27 0.22 -0.28 0.2 -0.29 0.19 -0.31 0.17 -0.31 0.16 -0.32 0.14 -0.32 0.13 -0.34 0.12 -0.34 0.09 -0.35 0.09 -0.35 0.06 -0.36 0.04 -0.37 0.03 -0.37 0.01 0 0zm-51.23 -9.02l51.23 0 0 3.61 -51.23 0 0 -3.61zm-7.21 1.81l0.01 -0.37 0.02 -0.37 0.05 -0.36 0.06 -0.35 0.08 -0.35 0.1 -0.34 0.12 -0.34 0.12 -0.32 0.15 -0.32 0.16 -0.31 0.17 -0.31 0.19 -0.29 0.2 -0.28 0.22 -0.28 0.22 -0.26 0.24 -0.25 0.25 -0.24 0.27 -0.23 0.27 -0.21 0.28 -0.2 0.29 -0.19 0.31 -0.17 0.31 -0.16 0.32 -0.15 0.32 -0.13 0.34 -0.11 0.34 -0.1 0.35 -0.08 0.36 -0.06 0.36 -0.05 0.36 -0.03 0.37 -0.01 0 0 0.37 0.01 0.37 0.03 0.36 0.05 0.35 0.06 0.35 0.08 0.34 0.1 0.34 0.11 0.33 0.13 0.32 0.15 0.31 0.16 0.3 0.17 0.29 0.19 0.28 0.2 0.28 0.21 0.26 0.23 0.25 0.24 0.24 0.25 0.23 0.26 0.21 0.28 0.2 0.28 0.19 0.29 0.17 0.31 0.16 0.31 0.15 0.32 0.13 0.32 0.11 0.34 0.1 0.34 0.08 0.35 0.06 0.35 0.05 0.36 0.03 0.37 0.01 0.37 0 0 -0.01 0.37 -0.03 0.36 -0.05 0.36 -0.06 0.36 -0.08 0.34 -0.1 0.35 -0.11 0.33 -0.13 0.33 -0.15 0.32 -0.16 0.31 -0.17 0.3 -0.19 0.29 -0.2 0.29 -0.21 0.27 -0.23 0.26 -0.24 0.25 -0.25 0.24 -0.26 0.23 -0.28 0.21 -0.28 0.21 -0.29 0.18 -0.3 0.18 -0.31 0.16 -0.32 0.14 -0.33 0.13 -0.34 0.12 -0.34 0.09 -0.35 0.09 -0.35 0.06 -0.36 0.04 -0.37 0.03 -0.37 0.01 0 0 -0.37 -0.01 -0.36 -0.03 -0.36 -0.04 -0.36 -0.06 -0.35 -0.09 -0.34 -0.09 -0.34 -0.12 -0.32 -0.13 -0.32 -0.14 -0.31 -0.16 -0.31 -0.18 -0.29 -0.18 -0.28 -0.21 -0.27 -0.21 -0.27 -0.23 -0.25 -0.24 -0.24 -0.25 -0.22 -0.26 -0.22 -0.27 -0.2 -0.29 -0.19 -0.29 -0.17 -0.3 -0.16 -0.31 -0.15 -0.32 -0.12 -0.33 -0.12 -0.33 -0.1 -0.35 -0.08 -0.34 -0.06 -0.36 -0.05 -0.36 -0.02 -0.36 -0.01 -0.37 0 0zm9.02 -51.23l0 51.23 -3.61 0 0 -51.23 3.61 0zm49.42 -7.22l0.37 0.01 0.37 0.03 0.36 0.05 0.35 0.06 0.35 0.08 0.34 0.1 0.34 0.11 0.32 0.13 0.32 0.15 0.31 0.15 0.31 0.18 0.29 0.19 0.28 0.2 0.27 0.21 0.27 0.23 0.25 0.24 0.24 0.25 0.22 0.26 0.22 0.27 0.2 0.29 0.19 0.29 0.17 0.3 0.16 0.31 0.15 0.32 0.13 0.33 0.11 0.34 0.1 0.34 0.08 0.35 0.06 0.35 0.05 0.36 0.03 0.37 0.01 0.37 0 0 -0.01 0.37 -0.03 0.36 -0.05 0.36 -0.06 0.36 -0.08 0.35 -0.1 0.34 -0.11 0.33 -0.13 0.33 -0.15 0.32 -0.16 0.31 -0.17 0.3 -0.19 0.3 -0.2 0.28 -0.22 0.27 -0.22 0.27 -0.24 0.25 -0.25 0.23 -0.27 0.23 -0.27 0.22 -0.28 0.2 -0.29 0.19 -0.31 0.17 -0.31 0.16 -0.32 0.14 -0.32 0.13 -0.34 0.12 -0.34 0.09 -0.35 0.09 -0.35 0.06 -0.36 0.05 -0.37 0.02 -0.37 0.01 0 0 -0.37 -0.01 -0.36 -0.02 -0.36 -0.05 -0.36 -0.06 -0.35 -0.09 -0.34 -0.09 -0.33 -0.12 -0.33 -0.13 -0.32 -0.14 -0.31 -0.16 -0.3 -0.17 -0.3 -0.19 -0.28 -0.2 -0.27 -0.22 -0.26 -0.23 -0.25 -0.23 -0.24 -0.25 -0.23 -0.27 -0.22 -0.27 -0.2 -0.28 -0.18 -0.3 -0.18 -0.3 -0.16 -0.31 -0.14 -0.32 -0.13 -0.33 -0.12 -0.33 -0.1 -0.34 -0.08 -0.35 -0.06 -0.36 -0.05 -0.36 -0.02 -0.36 -0.01 -0.37 0 0 0.01 -0.37 0.02 -0.37 0.05 -0.36 0.06 -0.35 0.08 -0.35 0.1 -0.34 0.12 -0.34 0.13 -0.33 0.14 -0.32 0.16 -0.31 0.18 -0.3 0.18 -0.29 0.2 -0.29 0.22 -0.27 0.23 -0.26 0.24 -0.25 0.25 -0.24 0.26 -0.23 0.27 -0.21 0.28 -0.2 0.3 -0.19 0.3 -0.18 0.31 -0.15 0.32 -0.15 0.33 -0.13 0.33 -0.11 0.34 -0.1 0.35 -0.08 0.36 -0.06 0.36 -0.05 0.36 -0.03 0.37 -0.01 0 0zm51.23 9.02l-51.23 0 0 -3.61 51.23 0 0 3.61zm7.22 -1.8l-0.01 0.37 -0.03 0.36 -0.05 0.36 -0.06 0.36 -0.08 0.35 -0.1 0.34 -0.11 0.33 -0.13 0.33 -0.15 0.32 -0.16 0.31 -0.17 0.3 -0.19 0.29 -0.2 0.29 -0.21 0.27 -0.23 0.26 -0.24 0.25 -0.25 0.24 -0.26 0.23 -0.28 0.21 -0.28 0.21 -0.29 0.18 -0.3 0.18 -0.31 0.16 -0.32 0.14 -0.33 0.13 -0.34 0.12 -0.34 0.09 -0.35 0.09 -0.35 0.06 -0.36 0.05 -0.37 0.02 -0.37 0.01 0 0 -0.37 -0.01 -0.36 -0.02 -0.37 -0.05 -0.35 -0.06 -0.35 -0.09 -0.34 -0.09 -0.34 -0.12 -0.32 -0.13 -0.32 -0.14 -0.31 -0.16 -0.31 -0.18 -0.29 -0.18 -0.28 -0.21 -0.27 -0.21 -0.27 -0.23 -0.25 -0.24 -0.24 -0.25 -0.22 -0.26 -0.22 -0.27 -0.2 -0.29 -0.19 -0.29 -0.17 -0.3 -0.16 -0.31 -0.15 -0.32 -0.13 -0.33 -0.11 -0.33 -0.1 -0.34 -0.08 -0.35 -0.06 -0.36 -0.05 -0.36 -0.02 -0.36 -0.01 -0.37 0 0 0.01 -0.37 0.02 -0.37 0.05 -0.36 0.06 -0.35 0.08 -0.35 0.1 -0.34 0.12 -0.34 0.12 -0.32 0.15 -0.32 0.16 -0.31 0.17 -0.31 0.19 -0.29 0.2 -0.28 0.22 -0.28 0.22 -0.26 0.24 -0.25 0.25 -0.24 0.27 -0.23 0.27 -0.21 0.28 -0.2 0.29 -0.19 0.31 -0.17 0.31 -0.16 0.32 -0.15 0.32 -0.13 0.34 -0.11 0.34 -0.1 0.35 -0.08 0.35 -0.06 0.37 -0.05 0.36 -0.03 0.37 -0.01 0 0 0.37 0.01 0.37 0.03 0.36 0.05 0.35 0.06 0.35 0.08 0.34 0.1 0.34 0.11 0.33 0.13 0.32 0.15 0.31 0.16 0.3 0.17 0.29 0.19 0.28 0.2 0.28 0.21 0.26 0.23 0.25 0.24 0.24 0.25 0.23 0.26 0.21 0.28 0.2 0.28 0.19 0.29 0.17 0.31 0.16 0.31 0.15 0.32 0.13 0.32 0.11 0.34 0.1 0.34 0.08 0.35 0.06 0.35 0.05 0.36 0.03 0.37 0.01 0.37 0 0zm-9.02 51.23l0 -51.23 3.61 0 0 51.23 -3.61 0zm1.8 7.21l-0.37 -0.01 -0.36 -0.03 -0.36 -0.04 -0.36 -0.06 -0.35 -0.09 -0.34 -0.09 -0.33 -0.12 -0.33 -0.13 -0.32 -0.14 -0.31 -0.16 -0.3 -0.17 -0.3 -0.19 -0.28 -0.2 -0.27 -0.22 -0.26 -0.23 -0.25 -0.23 -0.24 -0.26 -0.23 -0.26 -0.22 -0.27 -0.2 -0.28 -0.19 -0.3 -0.17 -0.3 -0.16 -0.31 -0.14 -0.32 -0.13 -0.33 -0.12 -0.33 -0.1 -0.34 -0.08 -0.35 -0.06 -0.36 -0.05 -0.36 -0.02 -0.36 -0.01 -0.37 0 0 0.01 -0.37 0.02 -0.37 0.05 -0.36 0.06 -0.35 0.08 -0.35 0.1 -0.35 0.12 -0.33 0.13 -0.33 0.14 -0.32 0.16 -0.31 0.17 -0.3 0.19 -0.29 0.2 -0.29 0.22 -0.27 0.23 -0.26 0.24 -0.25 0.25 -0.24 0.26 -0.23 0.27 -0.21 0.28 -0.2 0.3 -0.19 0.3 -0.18 0.31 -0.16 0.32 -0.14 0.33 -0.13 0.33 -0.11 0.34 -0.1 0.35 -0.08 0.36 -0.06 0.36 -0.05 0.36 -0.03 0.37 -0.01 0 0 0.37 0.01 0.37 0.03 0.36 0.05 0.35 0.06 0.35 0.08 0.34 0.1 0.34 0.11 0.32 0.13 0.32 0.14 0.31 0.16 0.31 0.18 0.29 0.19 0.28 0.2 0.27 0.21 0.27 0.23 0.25 0.24 0.24 0.25 0.22 0.26 0.22 0.27 0.2 0.29 0.19 0.29 0.17 0.3 0.16 0.31 0.15 0.32 0.13 0.33 0.11 0.33 0.1 0.35 0.08 0.35 0.06 0.35 0.05 0.36 0.03 0.37 0.01 0.37 0 0 -0.01 0.37 -0.03 0.36 -0.05 0.36 -0.06 0.36 -0.08 0.35 -0.1 0.34 -0.11 0.33 -0.13 0.33 -0.15 0.32 -0.16 0.31 -0.17 0.3 -0.19 0.3 -0.2 0.28 -0.22 0.27 -0.22 0.26 -0.24 0.26 -0.25 0.23 -0.27 0.23 -0.27 0.22 -0.28 0.2 -0.29 0.19 -0.31 0.17 -0.31 0.16 -0.32 0.14 -0.32 0.13 -0.34 0.12 -0.34 0.09 -0.35 0.09 -0.35 0.06 -0.36 0.04 -0.37 0.03 -0.37 0.01 0 0zm-51.23 -9.02l51.23 0 0 3.61 -51.23 0 0 -3.61zm-7.21 1.81l0.01 -0.37 0.02 -0.37 0.05 -0.36 0.06 -0.35 0.08 -0.35 0.1 -0.34 0.12 -0.34 0.12 -0.32 0.15 -0.32 0.16 -0.31 0.17 -0.31 0.19 -0.29 0.2 -0.28 0.22 -0.28 0.22 -0.26 0.24 -0.25 0.25 -0.24 0.27 -0.23 0.27 -0.21 0.28 -0.2 0.29 -0.19 0.31 -0.17 0.31 -0.16 0.32 -0.15 0.32 -0.13 0.34 -0.11 0.34 -0.1 0.35 -0.08 0.36 -0.06 0.36 -0.05 0.36 -0.03 0.37 -0.01 0 0 0.37 0.01 0.37 0.03 0.36 0.05 0.35 0.06 0.35 0.08 0.34 0.1 0.34 0.11 0.33 0.13 0.32 0.15 0.31 0.16 0.3 0.17 0.29 0.19 0.28 0.2 0.28 0.21 0.26 0.23 0.25 0.24 0.24 0.25 0.23 0.26 0.21 0.28 0.2 0.28 0.19 0.29 0.17 0.31 0.16 0.31 0.15 0.32 0.13 0.32 0.11 0.34 0.1 0.34 0.08 0.35 0.06 0.35 0.05 0.36 0.03 0.37 0.01 0.37 0 0 -0.01 0.37 -0.03 0.36 -0.05 0.36 -0.06 0.36 -0.08 0.34 -0.1 0.35 -0.11 0.33 -0.13 0.33 -0.15 0.32 -0.16 0.31 -0.17 0.3 -0.19 0.29 -0.2 0.29 -0.21 0.27 -0.23 0.26 -0.24 0.25 -0.25 0.24 -0.26 0.23 -0.28 0.21 -0.28 0.21 -0.29 0.18 -0.3 0.18 -0.31 0.16 -0.32 0.14 -0.33 0.13 -0.34 0.12 -0.34 0.09 -0.35 0.09 -0.35 0.06 -0.36 0.04 -0.37 0.03 -0.37 0.01 0 0 -0.37 -0.01 -0.36 -0.03 -0.36 -0.04 -0.36 -0.06 -0.35 -0.09 -0.34 -0.09 -0.34 -0.12 -0.32 -0.13 -0.32 -0.14 -0.31 -0.16 -0.31 -0.18 -0.29 -0.18 -0.28 -0.21 -0.27 -0.21 -0.27 -0.23 -0.25 -0.24 -0.24 -0.25 -0.22 -0.26 -0.22 -0.27 -0.2 -0.29 -0.19 -0.29 -0.17 -0.3 -0.16 -0.31 -0.15 -0.32 -0.12 -0.33 -0.12 -0.33 -0.1 -0.35 -0.08 -0.34 -0.06 -0.36 -0.05 -0.36 -0.02 -0.36 -0.01 -0.37 0 0zm9.02 -51.23l0 51.23 -3.61 0 0 -51.23 3.61 0zm49.42 -7.22l0.37 0.01 0.37 0.03 0.36 0.05 0.35 0.06 0.35 0.08 0.34 0.1 0.34 0.11 0.32 0.13 0.32 0.15 0.31 0.15 0.31 0.18 0.29 0.19 0.28 0.2 0.27 0.21 0.27 0.23 0.25 0.24 0.24 0.25 0.22 0.26 0.22 0.27 0.2 0.29 0.19 0.29 0.17 0.3 0.16 0.31 0.15 0.32 0.13 0.33 0.11 0.34 0.1 0.34 0.08 0.35 0.06 0.35 0.05 0.36 0.03 0.37 0.01 0.37 0 0 -0.01 0.37 -0.03 0.36 -0.05 0.36 -0.06 0.36 -0.08 0.35 -0.1 0.34 -0.11 0.33 -0.13 0.33 -0.15 0.32 -0.16 0.31 -0.17 0.3 -0.19 0.3 -0.2 0.28 -0.22 0.27 -0.22 0.27 -0.24 0.25 -0.25 0.23 -0.27 0.23 -0.27 0.22 -0.28 0.2 -0.29 0.19 -0.31 0.17 -0.31 0.16 -0.32 0.14 -0.32 0.13 -0.34 0.12 -0.34 0.09 -0.35 0.09 -0.35 0.06 -0.36 0.05 -0.37 0.02 -0.37 0.01 0 0 -0.37 -0.01 -0.36 -0.02 -0.36 -0.05 -0.36 -0.06 -0.35 -0.09 -0.34 -0.09 -0.33 -0.12 -0.33 -0.13 -0.32 -0.14 -0.31 -0.16 -0.3 -0.17 -0.3 -0.19 -0.28 -0.2 -0.27 -0.22 -0.26 -0.23 -0.25 -0.23 -0.24 -0.25 -0.23 -0.27 -0.22 -0.27 -0.2 -0.28 -0.19 -0.3 -0.17 -0.3 -0.16 -0.31 -0.14 -0.32 -0.13 -0.33 -0.12 -0.33 -0.1 -0.34 -0.08 -0.35 -0.06 -0.36 -0.05 -0.36 -0.02 -0.36 -0.01 -0.37 0 0 0.01 -0.37 0.02 -0.37 0.05 -0.36 0.06 -0.35 0.08 -0.35 0.1 -0.34 0.12 -0.34 0.13 -0.33 0.14 -0.32 0.16 -0.31 0.17 -0.3 0.19 -0.29 0.2 -0.29 0.22 -0.27 0.23 -0.26 0.24 -0.25 0.25 -0.24 0.26 -0.23 0.27 -0.21 0.28 -0.2 0.3 -0.19 0.3 -0.18 0.31 -0.15 0.32 -0.15 0.33 -0.13 0.33 -0.11 0.34 -0.1 0.35 -0.08 0.36 -0.06 0.36 -0.05 0.36 -0.03 0.37 -0.01 0 0zm51.23 9.02l-51.23 0 0 -3.61 51.23 0 0 3.61zm6.45 -5.03l0.16 0.34 0.14 0.33 0.12 0.35 0.1 0.34 0.08 0.35 0.07 0.35 0.05 0.35 0.03 0.35 0.01 0.35 0 0.35 -0.02 0.35 -0.04 0.34 -0.05 0.35 -0.07 0.34 -0.09 0.33 -0.1 0.33 -0.12 0.33 -0.13 0.32 -0.15 0.32 -0.16 0.3 -0.18 0.3 -0.19 0.29 -0.21 0.28 -0.22 0.28 -0.23 0.26 -0.25 0.25 -0.26 0.24 -0.28 0.23 -0.29 0.22 -0.3 0.2 -0.32 0.19 -0.32 0.17 0 0 -0.34 0.16 -0.34 0.14 -0.34 0.12 -0.35 0.1 -0.34 0.08 -0.35 0.07 -0.35 0.04 -0.36 0.04 -0.35 0.01 -0.35 -0.01 -0.34 -0.02 -0.35 -0.03 -0.34 -0.06 -0.34 -0.07 -0.34 -0.08 -0.33 -0.11 -0.33 -0.11 -0.32 -0.14 -0.31 -0.14 -0.31 -0.17 -0.3 -0.17 -0.29 -0.2 -0.28 -0.2 -0.27 -0.22 -0.26 -0.24 -0.25 -0.25 -0.24 -0.26 -0.23 -0.28 -0.22 -0.28 -0.2 -0.31 -0.19 -0.31 -0.17 -0.33 0 0 -0.16 -0.33 -0.14 -0.34 -0.12 -0.34 -0.1 -0.35 -0.08 -0.35 -0.07 -0.34 -0.05 -0.36 -0.03 -0.35 -0.01 -0.35 0 -0.35 0.02 -0.34 0.04 -0.35 0.06 -0.34 0.06 -0.34 0.09 -0.34 0.1 -0.33 0.12 -0.33 0.13 -0.32 0.15 -0.31 0.16 -0.31 0.18 -0.3 0.19 -0.29 0.21 -0.28 0.22 -0.27 0.24 -0.26 0.24 -0.26 0.27 -0.24 0.27 -0.22 0.29 -0.22 0.3 -0.2 0.32 -0.19 0.32 -0.18 0 0 0.34 -0.15 0.34 -0.14 0.34 -0.12 0.35 -0.1 0.35 -0.09 0.35 -0.06 0.35 -0.05 0.35 -0.03 0.35 -0.01 0.35 0 0.35 0.02 0.34 0.04 0.35 0.05 0.34 0.07 0.33 0.09 0.33 0.1 0.33 0.12 0.32 0.13 0.31 0.15 0.31 0.16 0.3 0.18 0.29 0.19 0.28 0.21 0.27 0.22 0.27 0.23 0.25 0.25 0.24 0.26 0.22 0.28 0.22 0.29 0.2 0.3 0.19 0.31 0.17 0.33 0 0zm17.55 55.26l-25.61 -51.23 3.22 -1.61 25.62 51.23 -3.23 1.61zm1.62 6.41l-0.37 -0.01 -0.37 -0.03 -0.36 -0.04 -0.35 -0.06 -0.35 -0.09 -0.34 -0.09 -0.34 -0.12 -0.33 -0.13 -0.32 -0.14 -0.31 -0.16 -0.3 -0.17 -0.29 -0.19 -0.28 -0.2 -0.28 -0.22 -0.26 -0.23 -0.25 -0.23 -0.24 -0.26 -0.23 -0.26 -0.21 -0.27 -0.2 -0.28 -0.19 -0.3 -0.18 -0.3 -0.16 -0.31 -0.14 -0.32 -0.13 -0.33 -0.11 -0.33 -0.1 -0.34 -0.08 -0.35 -0.07 -0.36 -0.04 -0.36 -0.03 -0.36 -0.01 -0.37 0 0 0.01 -0.37 0.03 -0.37 0.04 -0.36 0.07 -0.35 0.08 -0.35 0.1 -0.35 0.11 -0.33 0.13 -0.33 0.14 -0.32 0.16 -0.31 0.18 -0.3 0.19 -0.29 0.2 -0.29 0.21 -0.27 0.23 -0.26 0.24 -0.25 0.25 -0.24 0.26 -0.23 0.28 -0.21 0.28 -0.2 0.29 -0.19 0.3 -0.18 0.31 -0.16 0.32 -0.14 0.33 -0.13 0.34 -0.11 0.34 -0.1 0.35 -0.08 0.35 -0.06 0.36 -0.05 0.37 -0.03 0.37 -0.01 0 0 0.37 0.01 0.36 0.03 0.36 0.05 0.36 0.06 0.34 0.08 0.35 0.1 0.33 0.11 0.33 0.13 0.32 0.14 0.31 0.16 0.3 0.18 0.29 0.19 0.29 0.2 0.27 0.21 0.26 0.23 0.25 0.24 0.24 0.25 0.23 0.26 0.21 0.27 0.2 0.29 0.19 0.29 0.18 0.3 0.16 0.31 0.14 0.32 0.13 0.33 0.12 0.33 0.09 0.35 0.08 0.35 0.07 0.35 0.04 0.36 0.03 0.37 0.01 0.37 0 0 -0.01 0.37 -0.03 0.36 -0.04 0.36 -0.07 0.36 -0.08 0.35 -0.09 0.34 -0.12 0.33 -0.13 0.33 -0.14 0.32 -0.16 0.31 -0.18 0.3 -0.19 0.3 -0.2 0.28 -0.21 0.27 -0.23 0.26 -0.24 0.26 -0.25 0.23 -0.26 0.23 -0.27 0.22 -0.29 0.2 -0.29 0.19 -0.3 0.17 -0.31 0.16 -0.32 0.14 -0.33 0.13 -0.33 0.12 -0.35 0.09 -0.34 0.09 -0.36 0.06 -0.36 0.04 -0.36 0.03 -0.37 0.01 0 0zm-76.85 -9.02l76.85 0 0 3.61 -76.85 0 0 -3.61zm-7.21 1.81l0.01 -0.37 0.02 -0.37 0.05 -0.36 0.06 -0.35 0.08 -0.35 0.1 -0.34 0.11 -0.34 0.13 -0.32 0.15 -0.32 0.16 -0.31 0.17 -0.31 0.19 -0.29 0.2 -0.28 0.22 -0.28 0.22 -0.26 0.24 -0.25 0.25 -0.24 0.27 -0.23 0.27 -0.21 0.28 -0.2 0.29 -0.19 0.31 -0.17 0.31 -0.16 0.32 -0.15 0.32 -0.13 0.34 -0.11 0.34 -0.1 0.35 -0.08 0.35 -0.06 0.37 -0.05 0.36 -0.03 0.37 -0.01 0 0 0.37 0.01 0.37 0.03 0.36 0.05 0.35 0.06 0.35 0.08 0.34 0.1 0.34 0.11 0.33 0.13 0.32 0.15 0.31 0.16 0.3 0.17 0.29 0.19 0.28 0.2 0.28 0.21 0.26 0.23 0.25 0.24 0.24 0.25 0.23 0.26 0.21 0.28 0.2 0.28 0.19 0.29 0.17 0.31 0.16 0.31 0.15 0.32 0.13 0.32 0.11 0.34 0.1 0.34 0.08 0.35 0.06 0.35 0.05 0.36 0.03 0.37 0.01 0.37 0 0 -0.01 0.37 -0.03 0.36 -0.05 0.36 -0.06 0.36 -0.08 0.34 -0.1 0.35 -0.11 0.33 -0.13 0.33 -0.15 0.32 -0.16 0.31 -0.17 0.3 -0.19 0.29 -0.2 0.29 -0.21 0.27 -0.23 0.26 -0.24 0.25 -0.25 0.24 -0.26 0.23 -0.28 0.21 -0.28 0.21 -0.29 0.18 -0.3 0.18 -0.31 0.16 -0.32 0.14 -0.33 0.13 -0.34 0.12 -0.34 0.09 -0.35 0.09 -0.35 0.06 -0.36 0.04 -0.37 0.03 -0.37 0.01 0 0 -0.37 -0.01 -0.36 -0.03 -0.37 -0.04 -0.35 -0.06 -0.35 -0.09 -0.34 -0.09 -0.34 -0.12 -0.32 -0.13 -0.32 -0.14 -0.31 -0.16 -0.31 -0.18 -0.29 -0.18 -0.28 -0.21 -0.27 -0.21 -0.27 -0.23 -0.25 -0.24 -0.24 -0.25 -0.22 -0.26 -0.22 -0.27 -0.2 -0.29 -0.19 -0.29 -0.17 -0.3 -0.16 -0.31 -0.15 -0.32 -0.12 -0.33 -0.12 -0.33 -0.1 -0.35 -0.08 -0.34 -0.06 -0.36 -0.05 -0.36 -0.02 -0.36 -0.01 -0.37 0 0zm9.02 -51.23l0 51.23 -3.61 0 0 -51.23 3.61 0zm-53.04 44.01l0.37 0.01 0.37 0.03 0.36 0.05 0.35 0.06 0.35 0.08 0.34 0.1 0.34 0.11 0.32 0.13 0.32 0.14 0.31 0.16 0.31 0.18 0.29 0.19 0.28 0.2 0.27 0.21 0.27 0.23 0.25 0.24 0.24 0.25 0.22 0.26 0.22 0.27 0.2 0.29 0.19 0.29 0.17 0.3 0.16 0.31 0.15 0.32 0.13 0.33 0.11 0.33 0.1 0.35 0.08 0.35 0.06 0.35 0.05 0.36 0.03 0.37 0.01 0.37 0 0 -0.01 0.37 -0.03 0.36 -0.05 0.36 -0.06 0.36 -0.08 0.35 -0.1 0.34 -0.11 0.33 -0.13 0.33 -0.15 0.32 -0.16 0.31 -0.17 0.3 -0.19 0.3 -0.2 0.28 -0.22 0.27 -0.22 0.26 -0.24 0.26 -0.25 0.23 -0.27 0.23 -0.27 0.22 -0.28 0.2 -0.29 0.19 -0.31 0.17 -0.31 0.16 -0.32 0.14 -0.32 0.13 -0.34 0.12 -0.34 0.09 -0.35 0.09 -0.35 0.06 -0.36 0.04 -0.37 0.03 -0.37 0.01 0 0 -0.37 -0.01 -0.36 -0.03 -0.36 -0.04 -0.36 -0.06 -0.35 -0.09 -0.34 -0.09 -0.33 -0.12 -0.33 -0.13 -0.32 -0.14 -0.31 -0.16 -0.3 -0.17 -0.3 -0.19 -0.28 -0.2 -0.27 -0.22 -0.26 -0.23 -0.25 -0.23 -0.24 -0.26 -0.23 -0.26 -0.22 -0.27 -0.2 -0.28 -0.18 -0.3 -0.18 -0.3 -0.16 -0.31 -0.14 -0.32 -0.13 -0.33 -0.12 -0.33 -0.1 -0.34 -0.08 -0.35 -0.06 -0.36 -0.05 -0.36 -0.02 -0.36 -0.01 -0.37 0 0 0.01 -0.37 0.02 -0.37 0.05 -0.36 0.06 -0.35 0.08 -0.35 0.1 -0.35 0.12 -0.33 0.13 -0.33 0.14 -0.32 0.16 -0.31 0.18 -0.3 0.18 -0.29 0.2 -0.29 0.22 -0.27 0.23 -0.26 0.24 -0.25 0.25 -0.24 0.26 -0.23 0.27 -0.21 0.28 -0.2 0.3 -0.19 0.3 -0.18 0.31 -0.16 0.32 -0.14 0.33 -0.13 0.33 -0.11 0.34 -0.1 0.35 -0.08 0.36 -0.06 0.36 -0.05 0.36 -0.03 0.37 -0.01 0 0zm51.23 9.02l-51.23 0 0 -3.61 51.23 0 0 3.61zm7.22 -1.8l-0.01 0.37 -0.03 0.36 -0.05 0.36 -0.06 0.36 -0.08 0.34 -0.1 0.35 -0.11 0.33 -0.13 0.33 -0.15 0.32 -0.16 0.31 -0.17 0.3 -0.19 0.29 -0.2 0.29 -0.21 0.27 -0.23 0.26 -0.24 0.25 -0.25 0.24 -0.26 0.23 -0.28 0.21 -0.28 0.21 -0.29 0.18 -0.3 0.18 -0.31 0.16 -0.32 0.14 -0.33 0.13 -0.34 0.12 -0.34 0.09 -0.35 0.09 -0.35 0.06 -0.36 0.04 -0.37 0.03 -0.37 0.01 0 0 -0.37 -0.01 -0.36 -0.03 -0.37 -0.04 -0.35 -0.06 -0.35 -0.09 -0.34 -0.09 -0.34 -0.12 -0.32 -0.13 -0.32 -0.14 -0.31 -0.16 -0.31 -0.18 -0.29 -0.18 -0.28 -0.21 -0.27 -0.21 -0.27 -0.23 -0.25 -0.24 -0.24 -0.25 -0.22 -0.26 -0.22 -0.27 -0.2 -0.29 -0.19 -0.29 -0.17 -0.3 -0.16 -0.31 -0.15 -0.32 -0.13 -0.33 -0.11 -0.33 -0.1 -0.35 -0.08 -0.34 -0.06 -0.36 -0.05 -0.36 -0.02 -0.36 -0.01 -0.37 0 0 0.01 -0.37 0.02 -0.37 0.05 -0.36 0.06 -0.35 0.08 -0.35 0.1 -0.34 0.12 -0.34 0.12 -0.32 0.15 -0.32 0.16 -0.31 0.17 -0.31 0.19 -0.29 0.2 -0.28 0.22 -0.28 0.22 -0.26 0.24 -0.25 0.25 -0.24 0.27 -0.23 0.27 -0.21 0.28 -0.2 0.29 -0.19 0.31 -0.17 0.31 -0.16 0.32 -0.15 0.32 -0.13 0.34 -0.11 0.34 -0.1 0.35 -0.08 0.35 -0.06 0.37 -0.05 0.36 -0.03 0.37 -0.01 0 0 0.37 0.01 0.37 0.03 0.36 0.05 0.35 0.06 0.35 0.08 0.34 0.1 0.34 0.11 0.33 0.13 0.32 0.15 0.31 0.16 0.3 0.17 0.29 0.19 0.28 0.2 0.28 0.21 0.26 0.23 0.25 0.24 0.24 0.25 0.23 0.26 0.21 0.28 0.2 0.28 0.19 0.29 0.17 0.31 0.16 0.31 0.15 0.32 0.13 0.32 0.11 0.34 0.1 0.34 0.08 0.35 0.06 0.35 0.05 0.36 0.03 0.37 0.01 0.37 0 0zm-9.02 51.23l0 -51.23 3.61 0 0 51.23 -3.61 0zm1.8 7.21l-0.37 -0.01 -0.36 -0.03 -0.36 -0.04 -0.36 -0.07 -0.35 -0.08 -0.34 -0.09 -0.33 -0.12 -0.33 -0.13 -0.32 -0.14 -0.31 -0.16 -0.3 -0.17 -0.3 -0.19 -0.28 -0.2 -0.27 -0.22 -0.26 -0.23 -0.25 -0.23 -0.24 -0.26 -0.23 -0.26 -0.22 -0.27 -0.2 -0.28 -0.19 -0.3 -0.17 -0.3 -0.16 -0.31 -0.14 -0.32 -0.13 -0.33 -0.12 -0.33 -0.1 -0.34 -0.08 -0.35 -0.06 -0.36 -0.05 -0.36 -0.02 -0.36 -0.01 -0.37 0 0 0.01 -0.37 0.02 -0.37 0.05 -0.36 0.06 -0.35 0.08 -0.35 0.1 -0.35 0.12 -0.33 0.13 -0.33 0.14 -0.32 0.16 -0.31 0.17 -0.3 0.19 -0.29 0.2 -0.29 0.22 -0.27 0.23 -0.26 0.24 -0.25 0.25 -0.24 0.26 -0.23 0.27 -0.21 0.28 -0.2 0.3 -0.19 0.3 -0.18 0.31 -0.16 0.32 -0.14 0.33 -0.13 0.33 -0.11 0.34 -0.1 0.35 -0.08 0.36 -0.07 0.36 -0.04 0.36 -0.03 0.37 -0.01 0 0 0.37 0.01 0.37 0.03 0.36 0.04 0.35 0.07 0.35 0.08 0.34 0.1 0.34 0.11 0.32 0.13 0.32 0.14 0.31 0.16 0.31 0.18 0.29 0.19 0.28 0.2 0.27 0.21 0.27 0.23 0.25 0.24 0.24 0.25 0.22 0.26 0.22 0.27 0.2 0.29 0.19 0.29 0.17 0.3 0.16 0.31 0.15 0.32 0.13 0.33 0.11 0.33 0.1 0.35 0.08 0.35 0.06 0.35 0.05 0.36 0.03 0.37 0.01 0.37 0 0 -0.01 0.37 -0.03 0.36 -0.05 0.36 -0.06 0.36 -0.08 0.35 -0.1 0.34 -0.11 0.33 -0.13 0.33 -0.15 0.32 -0.16 0.31 -0.17 0.3 -0.19 0.3 -0.2 0.28 -0.22 0.27 -0.22 0.26 -0.24 0.26 -0.25 0.23 -0.27 0.23 -0.27 0.22 -0.28 0.2 -0.29 0.19 -0.31 0.17 -0.31 0.16 -0.32 0.14 -0.32 0.13 -0.34 0.12 -0.34 0.09 -0.35 0.08 -0.35 0.07 -0.36 0.04 -0.37 0.03 -0.37 0.01 0 0zm-51.23 -9.02l51.23 0 0 3.61 -51.23 0 0 -3.61zm-7.21 1.81l0.01 -0.37 0.02 -0.37 0.05 -0.36 0.06 -0.35 0.08 -0.35 0.1 -0.34 0.12 -0.34 0.12 -0.32 0.15 -0.32 0.16 -0.32 0.17 -0.3 0.19 -0.29 0.2 -0.28 0.22 -0.28 0.22 -0.26 0.24 -0.25 0.25 -0.24 0.27 -0.23 0.27 -0.21 0.28 -0.2 0.29 -0.19 0.31 -0.17 0.31 -0.16 0.32 -0.15 0.32 -0.13 0.34 -0.11 0.34 -0.1 0.35 -0.08 0.36 -0.07 0.36 -0.04 0.36 -0.03 0.37 -0.01 0 0 0.37 0.01 0.37 0.03 0.36 0.04 0.35 0.07 0.35 0.08 0.34 0.1 0.34 0.11 0.33 0.13 0.32 0.15 0.31 0.16 0.3 0.17 0.29 0.19 0.28 0.2 0.28 0.21 0.26 0.23 0.25 0.24 0.24 0.25 0.23 0.26 0.21 0.28 0.2 0.28 0.19 0.29 0.17 0.3 0.16 0.32 0.15 0.32 0.13 0.32 0.11 0.34 0.1 0.34 0.08 0.35 0.06 0.35 0.05 0.36 0.03 0.37 0.01 0.37 0 0 -0.01 0.37 -0.03 0.36 -0.05 0.36 -0.06 0.36 -0.08 0.34 -0.1 0.35 -0.11 0.33 -0.13 0.33 -0.15 0.32 -0.16 0.31 -0.17 0.3 -0.19 0.29 -0.2 0.29 -0.21 0.27 -0.23 0.26 -0.24 0.25 -0.25 0.24 -0.26 0.23 -0.28 0.21 -0.28 0.21 -0.29 0.18 -0.3 0.18 -0.31 0.16 -0.32 0.14 -0.33 0.13 -0.34 0.12 -0.34 0.09 -0.35 0.08 -0.35 0.07 -0.36 0.04 -0.37 0.03 -0.37 0.01 0 0 -0.37 -0.01 -0.36 -0.03 -0.36 -0.04 -0.36 -0.07 -0.35 -0.08 -0.34 -0.09 -0.34 -0.12 -0.32 -0.13 -0.32 -0.14 -0.31 -0.16 -0.31 -0.18 -0.29 -0.18 -0.28 -0.21 -0.27 -0.21 -0.27 -0.23 -0.25 -0.24 -0.24 -0.25 -0.22 -0.26 -0.22 -0.27 -0.2 -0.29 -0.19 -0.29 -0.17 -0.3 -0.16 -0.31 -0.15 -0.32 -0.12 -0.33 -0.12 -0.33 -0.1 -0.35 -0.08 -0.34 -0.06 -0.36 -0.05 -0.36 -0.02 -0.36 -0.01 -0.37 0 0zm9.02 -51.23l0 51.23 -3.61 0 0 -51.23 3.61 0zm-1.81 44.01l0.37 0.01 0.37 0.03 0.36 0.04 0.35 0.07 0.35 0.08 0.34 0.1 0.34 0.11 0.32 0.13 0.32 0.14 0.31 0.16 0.31 0.18 0.29 0.19 0.28 0.2 0.27 0.21 0.27 0.23 0.25 0.24 0.24 0.25 0.22 0.26 0.22 0.27 0.2 0.29 0.19 0.29 0.17 0.3 0.16 0.31 0.15 0.32 0.13 0.33 0.11 0.33 0.1 0.35 0.08 0.35 0.06 0.35 0.05 0.36 0.03 0.37 0.01 0.37 0 0 -0.01 0.37 -0.03 0.36 -0.05 0.36 -0.06 0.36 -0.08 0.35 -0.1 0.34 -0.11 0.33 -0.13 0.33 -0.15 0.32 -0.16 0.31 -0.17 0.3 -0.19 0.3 -0.2 0.28 -0.22 0.27 -0.22 0.26 -0.24 0.26 -0.25 0.23 -0.27 0.23 -0.27 0.22 -0.28 0.2 -0.29 0.19 -0.31 0.17 -0.31 0.16 -0.32 0.14 -0.32 0.13 -0.34 0.12 -0.34 0.09 -0.35 0.08 -0.35 0.07 -0.36 0.04 -0.37 0.03 -0.37 0.01 0 0 -0.37 -0.01 -0.36 -0.03 -0.36 -0.04 -0.36 -0.07 -0.35 -0.08 -0.34 -0.09 -0.33 -0.12 -0.33 -0.13 -0.32 -0.14 -0.31 -0.16 -0.3 -0.17 -0.3 -0.19 -0.28 -0.2 -0.27 -0.22 -0.26 -0.23 -0.25 -0.23 -0.24 -0.26 -0.23 -0.26 -0.22 -0.27 -0.2 -0.28 -0.18 -0.3 -0.18 -0.3 -0.16 -0.31 -0.14 -0.32 -0.13 -0.33 -0.12 -0.33 -0.1 -0.34 -0.08 -0.35 -0.06 -0.36 -0.05 -0.36 -0.02 -0.36 -0.01 -0.37 0 0 0.01 -0.37 0.02 -0.37 0.05 -0.36 0.06 -0.35 0.08 -0.35 0.1 -0.35 0.12 -0.33 0.13 -0.33 0.14 -0.32 0.16 -0.31 0.18 -0.3 0.18 -0.29 0.2 -0.29 0.22 -0.27 0.23 -0.26 0.24 -0.25 0.25 -0.24 0.26 -0.23 0.27 -0.21 0.28 -0.2 0.3 -0.19 0.3 -0.18 0.31 -0.16 0.32 -0.14 0.33 -0.13 0.33 -0.11 0.34 -0.1 0.35 -0.08 0.36 -0.07 0.36 -0.04 0.36 -0.03 0.37 -0.01 0 0zm51.23 9.02l-51.23 0 0 -3.61 51.23 0 0 3.61zm7.22 -1.8l-0.01 0.37 -0.03 0.36 -0.05 0.36 -0.06 0.36 -0.08 0.34 -0.1 0.35 -0.11 0.33 -0.13 0.33 -0.15 0.32 -0.16 0.31 -0.17 0.3 -0.19 0.29 -0.2 0.29 -0.21 0.27 -0.23 0.26 -0.24 0.25 -0.25 0.24 -0.26 0.23 -0.28 0.21 -0.28 0.21 -0.29 0.18 -0.3 0.18 -0.31 0.16 -0.32 0.14 -0.33 0.13 -0.34 0.12 -0.34 0.09 -0.35 0.08 -0.35 0.07 -0.36 0.04 -0.37 0.03 -0.37 0.01 0 0 -0.37 -0.01 -0.36 -0.03 -0.37 -0.04 -0.35 -0.07 -0.35 -0.08 -0.34 -0.09 -0.34 -0.12 -0.32 -0.13 -0.32 -0.14 -0.31 -0.16 -0.31 -0.18 -0.29 -0.18 -0.28 -0.21 -0.27 -0.21 -0.27 -0.23 -0.25 -0.24 -0.24 -0.25 -0.22 -0.26 -0.22 -0.27 -0.2 -0.29 -0.19 -0.29 -0.17 -0.3 -0.16 -0.31 -0.15 -0.32 -0.13 -0.33 -0.11 -0.33 -0.1 -0.35 -0.08 -0.34 -0.06 -0.36 -0.05 -0.36 -0.02 -0.36 -0.01 -0.37 0 0 0.01 -0.37 0.02 -0.37 0.05 -0.36 0.06 -0.35 0.08 -0.35 0.1 -0.34 0.12 -0.34 0.12 -0.32 0.15 -0.32 0.16 -0.32 0.17 -0.3 0.19 -0.29 0.2 -0.28 0.22 -0.28 0.22 -0.26 0.24 -0.25 0.25 -0.24 0.27 -0.23 0.27 -0.21 0.28 -0.2 0.29 -0.19 0.31 -0.17 0.31 -0.16 0.32 -0.15 0.32 -0.13 0.34 -0.11 0.34 -0.1 0.35 -0.08 0.35 -0.07 0.37 -0.04 0.36 -0.03 0.37 -0.01 0 0 0.37 0.01 0.37 0.03 0.36 0.04 0.35 0.07 0.35 0.08 0.34 0.1 0.34 0.11 0.33 0.13 0.32 0.15 0.31 0.16 0.3 0.17 0.29 0.19 0.28 0.2 0.28 0.21 0.26 0.23 0.25 0.24 0.24 0.25 0.23 0.26 0.21 0.28 0.2 0.28 0.19 0.29 0.17 0.3 0.16 0.32 0.15 0.32 0.13 0.32 0.11 0.34 0.1 0.34 0.08 0.35 0.06 0.35 0.05 0.36 0.03 0.37 0.01 0.37 0 0zm-9.02 51.23l0 -51.23 3.61 0 0 51.23 -3.61 0zm1.8 7.21l-0.37 -0.01 -0.36 -0.03 -0.36 -0.04 -0.36 -0.07 -0.35 -0.08 -0.34 -0.09 -0.33 -0.12 -0.33 -0.13 -0.32 -0.14 -0.31 -0.16 -0.3 -0.18 -0.3 -0.18 -0.28 -0.2 -0.27 -0.22 -0.26 -0.23 -0.25 -0.24 -0.24 -0.25 -0.23 -0.26 -0.22 -0.27 -0.2 -0.28 -0.19 -0.3 -0.17 -0.3 -0.16 -0.31 -0.14 -0.32 -0.13 -0.33 -0.12 -0.33 -0.1 -0.34 -0.08 -0.35 -0.06 -0.36 -0.05 -0.36 -0.02 -0.36 -0.01 -0.37 0 0 0.01 -0.37 0.02 -0.37 0.05 -0.36 0.06 -0.36 0.08 -0.34 0.1 -0.35 0.12 -0.33 0.13 -0.33 0.14 -0.32 0.16 -0.31 0.17 -0.3 0.19 -0.29 0.2 -0.29 0.22 -0.27 0.23 -0.26 0.24 -0.25 0.25 -0.24 0.26 -0.23 0.27 -0.21 0.28 -0.2 0.3 -0.19 0.3 -0.18 0.31 -0.16 0.32 -0.14 0.33 -0.13 0.33 -0.11 0.34 -0.1 0.35 -0.08 0.36 -0.07 0.36 -0.04 0.36 -0.03 0.37 -0.01 0 0 0.37 0.01 0.37 0.03 0.36 0.04 0.35 0.07 0.35 0.08 0.34 0.1 0.34 0.11 0.32 0.13 0.32 0.14 0.31 0.16 0.31 0.18 0.29 0.19 0.28 0.2 0.27 0.21 0.27 0.23 0.25 0.24 0.24 0.25 0.22 0.26 0.22 0.27 0.2 0.29 0.19 0.29 0.17 0.3 0.16 0.31 0.15 0.32 0.13 0.33 0.11 0.33 0.1 0.35 0.08 0.34 0.06 0.36 0.05 0.36 0.03 0.37 0.01 0.37 0 0 -0.01 0.37 -0.03 0.36 -0.05 0.36 -0.06 0.36 -0.08 0.35 -0.1 0.34 -0.11 0.33 -0.13 0.33 -0.15 0.32 -0.16 0.31 -0.17 0.3 -0.19 0.3 -0.2 0.28 -0.22 0.27 -0.22 0.26 -0.24 0.25 -0.25 0.24 -0.27 0.23 -0.27 0.22 -0.28 0.2 -0.29 0.18 -0.31 0.18 -0.31 0.16 -0.32 0.14 -0.32 0.13 -0.34 0.12 -0.34 0.09 -0.35 0.08 -0.35 0.07 -0.36 0.04 -0.37 0.03 -0.37 0.01 0 0zm-51.23 -9.02l51.23 0 0 3.61 -51.23 0 0 -3.61zm-7.21 1.81l0.01 -0.37 0.02 -0.37 0.05 -0.36 0.06 -0.35 0.08 -0.35 0.1 -0.34 0.12 -0.34 0.12 -0.33 0.15 -0.31 0.16 -0.32 0.17 -0.3 0.19 -0.29 0.2 -0.28 0.22 -0.28 0.22 -0.26 0.24 -0.25 0.25 -0.24 0.27 -0.23 0.27 -0.21 0.28 -0.2 0.29 -0.19 0.31 -0.17 0.31 -0.16 0.32 -0.15 0.32 -0.13 0.34 -0.11 0.34 -0.1 0.35 -0.08 0.36 -0.07 0.36 -0.04 0.36 -0.03 0.37 -0.01 0 0 0.37 0.01 0.37 0.03 0.36 0.04 0.35 0.07 0.35 0.08 0.34 0.1 0.34 0.11 0.33 0.13 0.32 0.15 0.31 0.16 0.3 0.17 0.29 0.19 0.28 0.2 0.28 0.21 0.26 0.23 0.25 0.24 0.24 0.25 0.23 0.26 0.21 0.28 0.2 0.28 0.19 0.29 0.17 0.3 0.16 0.32 0.15 0.31 0.13 0.33 0.11 0.34 0.1 0.34 0.08 0.35 0.06 0.35 0.05 0.36 0.03 0.37 0.01 0.37 0 0 -0.01 0.37 -0.03 0.36 -0.05 0.36 -0.06 0.36 -0.08 0.34 -0.1 0.35 -0.11 0.33 -0.13 0.33 -0.15 0.32 -0.16 0.31 -0.17 0.3 -0.19 0.29 -0.2 0.29 -0.21 0.27 -0.23 0.26 -0.24 0.25 -0.25 0.24 -0.26 0.23 -0.28 0.21 -0.28 0.2 -0.29 0.19 -0.3 0.18 -0.31 0.16 -0.32 0.14 -0.33 0.13 -0.34 0.12 -0.34 0.09 -0.35 0.08 -0.35 0.07 -0.36 0.04 -0.37 0.03 -0.37 0.01 0 0 -0.37 -0.01 -0.36 -0.03 -0.36 -0.04 -0.36 -0.07 -0.35 -0.08 -0.34 -0.09 -0.34 -0.12 -0.32 -0.13 -0.32 -0.14 -0.31 -0.16 -0.31 -0.18 -0.29 -0.19 -0.28 -0.2 -0.27 -0.21 -0.27 -0.23 -0.25 -0.24 -0.24 -0.25 -0.22 -0.26 -0.22 -0.27 -0.2 -0.29 -0.19 -0.29 -0.17 -0.3 -0.16 -0.31 -0.15 -0.32 -0.12 -0.33 -0.12 -0.33 -0.1 -0.35 -0.08 -0.34 -0.06 -0.36 -0.05 -0.36 -0.02 -0.36 -0.01 -0.37 0 0zm9.02 -51.23l0 51.23 -3.61 0 0 -51.23 3.61 0zm75.04 -58.45l0.37 0.01 0.36 0.03 0.36 0.05 0.36 0.06 0.34 0.08 0.35 0.1 0.33 0.11 0.33 0.13 0.32 0.14 0.31 0.16 0.3 0.18 0.29 0.19 0.29 0.2 0.27 0.21 0.26 0.23 0.25 0.24 0.24 0.25 0.23 0.26 0.21 0.27 0.2 0.29 0.19 0.29 0.18 0.3 0.16 0.31 0.14 0.32 0.13 0.33 0.12 0.33 0.09 0.35 0.08 0.35 0.07 0.35 0.04 0.36 0.03 0.37 0.01 0.37 0 0 -0.01 0.37 -0.03 0.36 -0.04 0.36 -0.07 0.36 -0.08 0.35 -0.09 0.34 -0.12 0.33 -0.13 0.33 -0.14 0.32 -0.16 0.31 -0.18 0.3 -0.19 0.3 -0.2 0.28 -0.21 0.27 -0.23 0.26 -0.24 0.26 -0.25 0.23 -0.26 0.23 -0.27 0.22 -0.29 0.2 -0.29 0.19 -0.3 0.17 -0.31 0.16 -0.32 0.14 -0.33 0.13 -0.33 0.12 -0.35 0.09 -0.34 0.09 -0.36 0.06 -0.36 0.04 -0.36 0.03 -0.37 0.01 0 0 -0.37 -0.01 -0.37 -0.03 -0.36 -0.04 -0.35 -0.06 -0.35 -0.09 -0.34 -0.09 -0.34 -0.12 -0.33 -0.13 -0.31 -0.14 -0.32 -0.16 -0.3 -0.17 -0.29 -0.19 -0.28 -0.2 -0.28 -0.22 -0.26 -0.23 -0.25 -0.23 -0.24 -0.26 -0.23 -0.26 -0.21 -0.27 -0.2 -0.28 -0.19 -0.3 -0.17 -0.3 -0.16 -0.31 -0.15 -0.32 -0.13 -0.33 -0.11 -0.33 -0.1 -0.34 -0.08 -0.35 -0.07 -0.36 -0.04 -0.36 -0.03 -0.36 -0.01 -0.37 0 0 0.01 -0.37 0.03 -0.37 0.04 -0.36 0.07 -0.35 0.08 -0.35 0.1 -0.35 0.11 -0.33 0.13 -0.33 0.15 -0.32 0.16 -0.31 0.17 -0.3 0.19 -0.29 0.2 -0.29 0.21 -0.27 0.23 -0.26 0.24 -0.25 0.25 -0.24 0.26 -0.23 0.28 -0.21 0.28 -0.2 0.29 -0.19 0.3 -0.18 0.32 -0.16 0.31 -0.14 0.33 -0.13 0.34 -0.11 0.34 -0.1 0.35 -0.08 0.35 -0.06 0.36 -0.05 0.37 -0.03 0.37 -0.01 0 0zm51.23 9.02l-51.23 0 0 -3.61 51.23 0 0 3.61zm6.45 1.42l-0.17 0.33 -0.19 0.31 -0.21 0.31 -0.21 0.28 -0.23 0.28 -0.24 0.26 -0.25 0.25 -0.26 0.23 -0.27 0.23 -0.29 0.2 -0.29 0.19 -0.3 0.18 -0.3 0.17 -0.32 0.14 -0.32 0.14 -0.32 0.11 -0.33 0.11 -0.34 0.08 -0.34 0.07 -0.34 0.06 -0.35 0.03 -0.35 0.02 -0.35 0.01 -0.35 -0.02 -0.35 -0.03 -0.35 -0.04 -0.35 -0.07 -0.35 -0.08 -0.34 -0.1 -0.35 -0.12 -0.34 -0.14 -0.33 -0.16 0 0 -0.33 -0.17 -0.31 -0.19 -0.3 -0.21 -0.29 -0.21 -0.28 -0.23 -0.26 -0.24 -0.25 -0.25 -0.23 -0.26 -0.23 -0.28 -0.2 -0.28 -0.19 -0.29 -0.18 -0.3 -0.16 -0.3 -0.15 -0.32 -0.14 -0.32 -0.11 -0.33 -0.1 -0.33 -0.09 -0.33 -0.07 -0.34 -0.05 -0.35 -0.04 -0.34 -0.02 -0.35 -0.01 -0.35 0.02 -0.35 0.03 -0.35 0.05 -0.35 0.06 -0.35 0.09 -0.35 0.1 -0.34 0.12 -0.35 0.14 -0.33 0.15 -0.34 0 0 0.18 -0.33 0.18 -0.31 0.21 -0.3 0.21 -0.29 0.23 -0.28 0.24 -0.26 0.25 -0.25 0.26 -0.23 0.28 -0.22 0.28 -0.21 0.29 -0.19 0.3 -0.18 0.3 -0.16 0.32 -0.15 0.32 -0.13 0.32 -0.12 0.34 -0.1 0.33 -0.09 0.34 -0.07 0.34 -0.05 0.35 -0.04 0.35 -0.02 0.35 0 0.35 0.01 0.35 0.03 0.35 0.05 0.35 0.06 0.35 0.09 0.34 0.1 0.35 0.12 0.34 0.14 0.33 0.15 0 0 0.33 0.18 0.31 0.19 0.31 0.2 0.28 0.21 0.28 0.23 0.26 0.24 0.25 0.25 0.24 0.27 0.22 0.27 0.2 0.28 0.2 0.29 0.17 0.3 0.17 0.31 0.14 0.31 0.14 0.32 0.11 0.33 0.11 0.33 0.08 0.34 0.07 0.34 0.06 0.34 0.03 0.35 0.02 0.34 0.01 0.35 -0.02 0.35 -0.03 0.35 -0.05 0.35 -0.06 0.35 -0.08 0.35 -0.11 0.35 -0.12 0.34 -0.13 0.34 -0.16 0.33 0 0zm-33.68 47.2l25.61 -51.23 3.23 1.61 -25.62 51.23 -3.22 -1.61zm1.61 8.02l-0.37 -0.01 -0.36 -0.03 -0.36 -0.04 -0.36 -0.07 -0.35 -0.08 -0.34 -0.09 -0.33 -0.12 -0.33 -0.13 -0.32 -0.14 -0.31 -0.16 -0.3 -0.17 -0.3 -0.19 -0.28 -0.2 -0.27 -0.22 -0.26 -0.23 -0.25 -0.23 -0.24 -0.26 -0.23 -0.26 -0.22 -0.27 -0.2 -0.28 -0.19 -0.3 -0.17 -0.3 -0.16 -0.31 -0.14 -0.32 -0.13 -0.33 -0.12 -0.33 -0.1 -0.34 -0.08 -0.35 -0.06 -0.36 -0.05 -0.36 -0.02 -0.36 -0.01 -0.37 0 0 0.01 -0.37 0.02 -0.37 0.05 -0.36 0.06 -0.35 0.08 -0.35 0.1 -0.35 0.12 -0.33 0.13 -0.33 0.14 -0.32 0.16 -0.31 0.17 -0.3 0.19 -0.29 0.2 -0.29 0.22 -0.27 0.23 -0.26 0.24 -0.25 0.25 -0.24 0.26 -0.23 0.27 -0.21 0.28 -0.2 0.3 -0.19 0.3 -0.18 0.31 -0.16 0.32 -0.14 0.33 -0.13 0.33 -0.11 0.34 -0.1 0.35 -0.08 0.36 -0.07 0.36 -0.04 0.36 -0.03 0.37 -0.01 0 0 0.37 0.01 0.37 0.03 0.36 0.04 0.35 0.07 0.35 0.08 0.34 0.1 0.34 0.11 0.32 0.13 0.32 0.14 0.31 0.16 0.31 0.18 0.29 0.19 0.28 0.2 0.27 0.21 0.27 0.23 0.25 0.24 0.24 0.25 0.22 0.26 0.22 0.27 0.2 0.29 0.19 0.29 0.17 0.3 0.16 0.31 0.15 0.32 0.13 0.33 0.11 0.33 0.1 0.35 0.08 0.35 0.06 0.35 0.05 0.36 0.03 0.37 0.01 0.37 0 0 -0.01 0.37 -0.03 0.36 -0.05 0.36 -0.06 0.36 -0.08 0.35 -0.1 0.34 -0.11 0.33 -0.13 0.33 -0.15 0.32 -0.16 0.31 -0.17 0.3 -0.19 0.3 -0.2 0.28 -0.22 0.27 -0.22 0.26 -0.24 0.26 -0.25 0.23 -0.27 0.23 -0.27 0.22 -0.28 0.2 -0.29 0.19 -0.31 0.17 -0.31 0.16 -0.32 0.14 -0.32 0.13 -0.34 0.12 -0.34 0.09 -0.35 0.08 -0.35 0.07 -0.36 0.04 -0.37 0.03 -0.37 0.01 0 0zm-51.23 -9.02l51.23 0 0 3.61 -51.23 0 0 -3.61zm-6.45 -1.42l0.17 -0.33 0.19 -0.31 0.2 -0.3 0.22 -0.29 0.23 -0.28 0.24 -0.26 0.25 -0.25 0.26 -0.23 0.27 -0.22 0.28 -0.21 0.29 -0.19 0.3 -0.18 0.31 -0.16 0.31 -0.15 0.32 -0.13 0.33 -0.12 0.33 -0.1 0.34 -0.09 0.34 -0.07 0.34 -0.05 0.35 -0.04 0.34 -0.02 0.35 0 0.36 0.01 0.35 0.03 0.35 0.05 0.35 0.06 0.34 0.09 0.35 0.1 0.34 0.12 0.34 0.14 0.34 0.15 0 0 0.32 0.18 0.32 0.19 0.3 0.2 0.29 0.21 0.28 0.23 0.26 0.24 0.25 0.25 0.23 0.27 0.22 0.27 0.21 0.28 0.19 0.29 0.18 0.3 0.16 0.31 0.15 0.31 0.13 0.32 0.12 0.33 0.1 0.33 0.09 0.34 0.07 0.34 0.05 0.34 0.04 0.35 0.02 0.34 0 0.35 -0.01 0.35 -0.03 0.35 -0.05 0.35 -0.07 0.35 -0.08 0.35 -0.1 0.35 -0.12 0.34 -0.14 0.34 -0.16 0.33 0 0 -0.17 0.33 -0.19 0.31 -0.2 0.3 -0.22 0.29 -0.22 0.28 -0.24 0.26 -0.25 0.25 -0.27 0.23 -0.27 0.23 -0.28 0.2 -0.29 0.19 -0.3 0.18 -0.31 0.17 -0.31 0.14 -0.32 0.14 -0.33 0.11 -0.33 0.11 -0.33 0.08 -0.34 0.07 -0.35 0.06 -0.34 0.03 -0.35 0.02 -0.35 0.01 -0.35 -0.02 -0.35 -0.03 -0.35 -0.04 -0.35 -0.07 -0.35 -0.08 -0.35 -0.1 -0.34 -0.12 -0.34 -0.14 -0.34 -0.16 0 0 -0.32 -0.17 -0.32 -0.19 -0.3 -0.21 -0.29 -0.21 -0.27 -0.23 -0.27 -0.24 -0.24 -0.25 -0.24 -0.26 -0.22 -0.28 -0.21 -0.28 -0.19 -0.29 -0.18 -0.3 -0.16 -0.31 -0.15 -0.31 -0.13 -0.32 -0.12 -0.33 -0.1 -0.33 -0.08 -0.33 -0.07 -0.34 -0.06 -0.35 -0.04 -0.34 -0.02 -0.35 0 -0.35 0.01 -0.35 0.03 -0.35 0.05 -0.35 0.07 -0.35 0.08 -0.35 0.1 -0.34 0.12 -0.35 0.14 -0.33 0.16 -0.34 0 0zm33.68 -47.2l-25.62 51.23 -3.22 -1.61 25.61 -51.23 3.23 1.61zm-1.61 94.44l0.37 0.01 0.36 0.03 0.36 0.04 0.36 0.07 0.34 0.08 0.35 0.1 0.33 0.11 0.33 0.13 0.32 0.14 0.31 0.16 0.3 0.18 0.29 0.19 0.29 0.2 0.27 0.21 0.26 0.23 0.25 0.24 0.24 0.25 0.23 0.26 0.21 0.27 0.2 0.29 0.19 0.29 0.18 0.3 0.16 0.31 0.14 0.32 0.13 0.33 0.12 0.33 0.09 0.35 0.08 0.34 0.07 0.36 0.04 0.36 0.03 0.37 0.01 0.37 0 0 -0.01 0.37 -0.03 0.36 -0.04 0.36 -0.07 0.36 -0.08 0.35 -0.09 0.34 -0.12 0.33 -0.13 0.33 -0.14 0.32 -0.16 0.31 -0.18 0.3 -0.19 0.3 -0.2 0.28 -0.21 0.27 -0.23 0.26 -0.24 0.25 -0.25 0.24 -0.26 0.23 -0.27 0.22 -0.29 0.2 -0.29 0.18 -0.3 0.18 -0.31 0.16 -0.32 0.14 -0.33 0.13 -0.33 0.12 -0.35 0.09 -0.34 0.08 -0.36 0.07 -0.36 0.04 -0.36 0.03 -0.37 0.01 0 0 -0.37 -0.01 -0.37 -0.03 -0.36 -0.04 -0.35 -0.07 -0.35 -0.08 -0.34 -0.09 -0.34 -0.12 -0.33 -0.13 -0.31 -0.14 -0.32 -0.16 -0.3 -0.18 -0.29 -0.18 -0.28 -0.2 -0.28 -0.22 -0.26 -0.23 -0.25 -0.24 -0.24 -0.25 -0.23 -0.26 -0.21 -0.27 -0.2 -0.28 -0.19 -0.3 -0.17 -0.3 -0.16 -0.31 -0.15 -0.32 -0.13 -0.33 -0.11 -0.33 -0.1 -0.34 -0.08 -0.35 -0.07 -0.36 -0.04 -0.36 -0.03 -0.36 -0.01 -0.37 0 0 0.01 -0.37 0.03 -0.37 0.04 -0.36 0.07 -0.36 0.08 -0.34 0.1 -0.35 0.11 -0.33 0.13 -0.33 0.15 -0.32 0.16 -0.31 0.17 -0.3 0.19 -0.29 0.2 -0.29 0.21 -0.27 0.23 -0.26 0.24 -0.25 0.25 -0.24 0.26 -0.23 0.28 -0.21 0.28 -0.2 0.29 -0.19 0.3 -0.18 0.32 -0.16 0.31 -0.14 0.33 -0.13 0.34 -0.11 0.34 -0.1 0.35 -0.08 0.35 -0.07 0.36 -0.04 0.37 -0.03 0.37 -0.01 0 0zm51.23 9.02l-51.23 0 0 -3.61 51.23 0 0 3.61zm-6.46 1.42l-0.15 -0.33 -0.14 -0.34 -0.12 -0.34 -0.1 -0.35 -0.09 -0.35 -0.06 -0.35 -0.05 -0.35 -0.03 -0.35 -0.02 -0.35 0.01 -0.35 0.02 -0.34 0.04 -0.35 0.05 -0.34 0.07 -0.34 0.09 -0.34 0.1 -0.33 0.11 -0.33 0.14 -0.32 0.15 -0.31 0.16 -0.31 0.18 -0.3 0.19 -0.29 0.2 -0.28 0.23 -0.27 0.23 -0.27 0.25 -0.25 0.26 -0.24 0.28 -0.23 0.29 -0.21 0.3 -0.2 0.31 -0.19 0.33 -0.18 0 0 0.33 -0.15 0.34 -0.14 0.35 -0.12 0.34 -0.1 0.35 -0.09 0.35 -0.06 0.35 -0.05 0.35 -0.03 0.35 -0.02 0.35 0.01 0.35 0.02 0.35 0.04 0.34 0.05 0.34 0.07 0.34 0.09 0.33 0.1 0.32 0.12 0.32 0.13 0.32 0.15 0.3 0.16 0.3 0.18 0.29 0.19 0.29 0.21 0.27 0.22 0.26 0.23 0.25 0.25 0.24 0.26 0.23 0.28 0.21 0.29 0.21 0.3 0.19 0.31 0.17 0.33 0 0 0.16 0.33 0.13 0.34 0.12 0.35 0.11 0.34 0.08 0.35 0.06 0.35 0.05 0.35 0.03 0.35 0.02 0.35 -0.01 0.35 -0.02 0.35 -0.03 0.34 -0.06 0.35 -0.07 0.34 -0.08 0.33 -0.11 0.33 -0.11 0.33 -0.14 0.32 -0.14 0.31 -0.17 0.31 -0.17 0.3 -0.2 0.29 -0.2 0.28 -0.22 0.28 -0.24 0.26 -0.25 0.25 -0.26 0.24 -0.28 0.23 -0.28 0.21 -0.31 0.21 -0.31 0.19 -0.33 0.17 0 0 -0.33 0.16 -0.34 0.13 -0.35 0.12 -0.34 0.11 -0.35 0.08 -0.35 0.07 -0.35 0.04 -0.35 0.03 -0.35 0.02 -0.35 -0.01 -0.35 -0.02 -0.35 -0.03 -0.34 -0.06 -0.34 -0.07 -0.33 -0.08 -0.34 -0.11 -0.32 -0.11 -0.32 -0.14 -0.32 -0.14 -0.3 -0.17 -0.3 -0.18 -0.29 -0.19 -0.28 -0.2 -0.28 -0.23 -0.26 -0.23 -0.25 -0.25 -0.24 -0.26 -0.23 -0.28 -0.21 -0.29 -0.21 -0.3 -0.18 -0.31 -0.18 -0.33 0 0zm-17.55 -55.26l25.62 51.23 -3.23 1.61 -25.61 -51.23 3.22 -1.61zm-1.61 8.02l-0.37 -0.01 -0.36 -0.03 -0.36 -0.04 -0.36 -0.07 -0.35 -0.08 -0.34 -0.09 -0.33 -0.12 -0.33 -0.13 -0.32 -0.14 -0.31 -0.16 -0.3 -0.17 -0.3 -0.19 -0.28 -0.2 -0.27 -0.22 -0.26 -0.23 -0.25 -0.23 -0.24 -0.26 -0.23 -0.26 -0.22 -0.27 -0.2 -0.28 -0.19 -0.3 -0.17 -0.3 -0.16 -0.31 -0.14 -0.32 -0.13 -0.33 -0.12 -0.33 -0.1 -0.34 -0.08 -0.35 -0.06 -0.36 -0.05 -0.36 -0.02 -0.36 -0.01 -0.37 0 0 0.01 -0.37 0.02 -0.37 0.05 -0.36 0.06 -0.35 0.08 -0.35 0.1 -0.35 0.12 -0.33 0.13 -0.33 0.14 -0.32 0.16 -0.31 0.17 -0.3 0.19 -0.29 0.2 -0.29 0.22 -0.27 0.23 -0.26 0.24 -0.25 0.25 -0.24 0.26 -0.23 0.27 -0.21 0.28 -0.2 0.3 -0.19 0.3 -0.18 0.31 -0.16 0.32 -0.14 0.33 -0.13 0.33 -0.11 0.34 -0.1 0.35 -0.08 0.36 -0.07 0.36 -0.04 0.36 -0.03 0.37 -0.01 0 0 0.37 0.01 0.37 0.03 0.36 0.04 0.35 0.07 0.35 0.08 0.34 0.1 0.34 0.11 0.32 0.13 0.32 0.14 0.31 0.16 0.31 0.18 0.29 0.19 0.28 0.2 0.27 0.21 0.27 0.23 0.25 0.24 0.24 0.25 0.22 0.26 0.22 0.27 0.2 0.29 0.19 0.29 0.17 0.3 0.16 0.31 0.15 0.32 0.13 0.33 0.11 0.33 0.1 0.35 0.08 0.35 0.06 0.35 0.05 0.36 0.03 0.37 0.01 0.37 0 0 -0.01 0.37 -0.03 0.36 -0.05 0.36 -0.06 0.36 -0.08 0.35 -0.1 0.34 -0.11 0.33 -0.13 0.33 -0.15 0.32 -0.16 0.31 -0.17 0.3 -0.19 0.3 -0.2 0.28 -0.22 0.27 -0.22 0.26 -0.24 0.26 -0.25 0.23 -0.27 0.23 -0.27 0.22 -0.28 0.2 -0.29 0.19 -0.31 0.17 -0.31 0.16 -0.32 0.14 -0.32 0.13 -0.34 0.12 -0.34 0.09 -0.35 0.08 -0.35 0.07 -0.36 0.04 -0.37 0.03 -0.37 0.01 0 0zm-51.23 -9.02l51.23 0 0 3.61 -51.23 0 0 -3.61zm6.45 -1.42l0.16 0.34 0.14 0.33 0.12 0.35 0.1 0.34 0.08 0.35 0.07 0.35 0.05 0.35 0.03 0.35 0.01 0.35 0 0.35 -0.02 0.35 -0.04 0.34 -0.05 0.35 -0.07 0.34 -0.09 0.33 -0.1 0.33 -0.12 0.33 -0.13 0.32 -0.15 0.31 -0.16 0.31 -0.18 0.3 -0.19 0.29 -0.21 0.28 -0.22 0.28 -0.23 0.26 -0.25 0.25 -0.26 0.24 -0.28 0.23 -0.29 0.21 -0.3 0.21 -0.32 0.19 -0.32 0.17 0 0 -0.34 0.16 -0.34 0.14 -0.34 0.12 -0.35 0.1 -0.34 0.08 -0.35 0.07 -0.35 0.04 -0.35 0.03 -0.36 0.02 -0.35 -0.01 -0.34 -0.02 -0.35 -0.03 -0.34 -0.06 -0.34 -0.07 -0.34 -0.08 -0.33 -0.11 -0.33 -0.11 -0.32 -0.14 -0.31 -0.14 -0.31 -0.17 -0.3 -0.18 -0.29 -0.19 -0.28 -0.2 -0.27 -0.23 -0.26 -0.23 -0.25 -0.25 -0.24 -0.26 -0.23 -0.28 -0.22 -0.29 -0.2 -0.3 -0.19 -0.31 -0.17 -0.33 0 0 -0.16 -0.33 -0.14 -0.34 -0.12 -0.34 -0.1 -0.35 -0.08 -0.35 -0.07 -0.35 -0.05 -0.35 -0.03 -0.35 -0.01 -0.35 0 -0.35 0.02 -0.34 0.04 -0.35 0.06 -0.34 0.07 -0.34 0.08 -0.34 0.1 -0.33 0.12 -0.33 0.13 -0.32 0.15 -0.31 0.16 -0.31 0.18 -0.3 0.19 -0.29 0.21 -0.28 0.22 -0.27 0.24 -0.27 0.24 -0.25 0.27 -0.24 0.27 -0.23 0.29 -0.21 0.3 -0.2 0.32 -0.19 0.32 -0.18 0 0 0.34 -0.15 0.34 -0.14 0.34 -0.12 0.35 -0.1 0.35 -0.09 0.35 -0.06 0.35 -0.05 0.35 -0.03 0.35 -0.01 0.35 0 0.35 0.02 0.34 0.04 0.35 0.05 0.34 0.07 0.33 0.09 0.33 0.1 0.33 0.12 0.32 0.13 0.31 0.15 0.31 0.16 0.3 0.18 0.29 0.19 0.28 0.21 0.27 0.22 0.27 0.23 0.25 0.25 0.24 0.26 0.22 0.28 0.22 0.29 0.2 0.3 0.19 0.31 0.17 0.33 0 0zm17.55 55.26l-25.61 -51.23 3.22 -1.61 25.62 51.23 -3.23 1.61zm33.68 -151.27l-0.17 0.33 -0.19 0.31 -0.2 0.31 -0.22 0.28 -0.22 0.28 -0.24 0.26 -0.25 0.25 -0.27 0.24 -0.27 0.22 -0.28 0.2 -0.29 0.2 -0.3 0.17 -0.31 0.17 -0.31 0.14 -0.32 0.14 -0.33 0.11 -0.33 0.11 -0.33 0.08 -0.34 0.07 -0.35 0.06 -0.34 0.03 -0.35 0.02 -0.35 0.01 -0.35 -0.01 -0.35 -0.04 -0.35 -0.04 -0.35 -0.07 -0.35 -0.08 -0.35 -0.1 -0.34 -0.12 -0.34 -0.14 -0.34 -0.16 0 0 -0.32 -0.17 -0.32 -0.19 -0.3 -0.2 -0.29 -0.22 -0.27 -0.23 -0.27 -0.24 -0.24 -0.25 -0.24 -0.26 -0.22 -0.28 -0.21 -0.28 -0.19 -0.29 -0.18 -0.3 -0.16 -0.3 -0.15 -0.32 -0.13 -0.32 -0.12 -0.33 -0.1 -0.33 -0.09 -0.33 -0.06 -0.34 -0.06 -0.35 -0.04 -0.34 -0.02 -0.35 0 -0.35 0.01 -0.35 0.03 -0.35 0.05 -0.35 0.07 -0.35 0.08 -0.35 0.1 -0.34 0.12 -0.35 0.14 -0.33 0.16 -0.34 0 0 0.17 -0.33 0.19 -0.31 0.2 -0.3 0.22 -0.29 0.23 -0.28 0.24 -0.26 0.25 -0.25 0.26 -0.23 0.27 -0.22 0.28 -0.21 0.29 -0.19 0.3 -0.18 0.31 -0.16 0.31 -0.15 0.32 -0.13 0.33 -0.12 0.33 -0.1 0.34 -0.09 0.34 -0.07 0.34 -0.05 0.35 -0.04 0.34 -0.02 0.35 0 0.35 0.01 0.36 0.03 0.35 0.05 0.35 0.06 0.34 0.09 0.35 0.1 0.34 0.12 0.34 0.14 0.34 0.15 0 0 0.32 0.18 0.32 0.19 0.3 0.2 0.29 0.22 0.28 0.22 0.26 0.24 0.25 0.26 0.23 0.26 0.22 0.27 0.21 0.28 0.19 0.29 0.18 0.3 0.16 0.31 0.15 0.31 0.13 0.32 0.12 0.33 0.1 0.33 0.09 0.34 0.07 0.34 0.05 0.34 0.04 0.35 0.02 0.34 0 0.35 -0.01 0.35 -0.03 0.35 -0.05 0.36 -0.07 0.34 -0.08 0.35 -0.1 0.35 -0.12 0.34 -0.14 0.34 -0.16 0.33 0 0zm-33.68 47.2l25.62 -51.23 3.22 1.61 -25.61 51.23 -3.23 -1.61z"/>
    </g>
   </g>
  </g>
 </g>
</svg>
