<?xml version="1.0" encoding="UTF-8"?>
<!DOCTYPE svg PUBLIC "-//W3C//DTD SVG 1.1//EN" "http://www.w3.org/Graphics/SVG/1.1/DTD/svg11.dtd">
<!-- Creator: CorelDRAW Home & Student 2019 -->
<svg xmlns="http://www.w3.org/2000/svg" xml:space="preserve" width="960px" height="960px" version="1.1" style="shape-rendering:geometricPrecision; text-rendering:geometricPrecision; image-rendering:optimizeQuality; fill-rule:evenodd; clip-rule:evenodd"
viewBox="0 0 960 960"
 xmlns:xlink="http://www.w3.org/1999/xlink">
 <defs>
  <style type="text/css">
   <![CDATA[
    .fil0 {fill:#FFED00}
    .fil1 {fill:black;fill-rule:nonzero}
   ]]>
  </style>
 </defs>
 <g id="Layer_x0020_1">
  <metadata id="CorelCorpID_0Corel-Layer"/>
  <circle class="fil0" cx="480" cy="480" r="400.001"/>
  <g>
   <path class="fil1" d="M498.494 370.368c1.336,5.16 4.206,9.693 8.099,13.086l-61.8 123.601 0 -118.028c9.129,-2.364 16.294,-9.53 18.657,-18.659l35.044 0 0 0zm-42.553 183.28c2.238,-2.066 4.15,-4.562 5.6,-7.446 0.831,-1.671 1.466,-3.389 1.913,-5.125l120.393 0c2.901,11.204 13.037,19.452 25.156,19.492 1.867,-0.006 3.685,-0.208 5.438,-0.585l62.855 125.709c-4.015,3.501 -6.786,8.098 -8.082,13.097l-120.409 0c-2.901,-11.205 -13.036,-19.452 -25.156,-19.493 -1.866,0.006 -3.685,0.209 -5.438,0.585l-62.854 -125.708 0.225 -0.199 0.21 -0.19 0.149 -0.137zm213.273 -183.28c1.296,4.999 4.067,9.596 8.082,13.097l-62.855 125.709c-1.753,-0.377 -3.571,-0.579 -5.438,-0.585 -12.119,0.041 -22.255,8.288 -25.156,19.493l-120.393 0c-0.447,-1.737 -1.082,-3.455 -1.913,-5.126 -1.488,-2.96 -3.463,-5.511 -5.777,-7.609l-0.004 -0.003c-0.091,-0.083 -0.184,-0.165 -0.277,-0.247l-0.126 -0.112 62.854 -125.709c1.753,0.376 3.572,0.579 5.438,0.585 12.12,-0.041 22.255,-8.288 25.156,-19.493l57.95 0 62.459 0zm8.082 -26.091c-2.49,2.163 -4.61,4.838 -6.185,7.97 -0.831,1.672 -1.465,3.389 -1.913,5.126l-62.443 0 -57.95 0c-1.336,-5.161 -4.207,-9.693 -8.1,-13.086l62.859 -125.718c1.835,0.391 3.685,0.577 5.521,0.568l0.111 0c0.108,-0.001 0.215,-0.002 0.323,-0.005 0.135,-0.002 0.269,-0.006 0.404,-0.011l0.036 -0.001c1.495,-0.053 2.994,-0.234 4.483,-0.552l62.854 125.709zm-434.865 -144.617c2.364,9.129 9.529,16.295 18.658,18.658l0 120.397c-9.129,2.364 -16.295,9.529 -18.659,18.658l-75.176 0 -45.22 0c-2.364,-9.129 -9.529,-16.295 -18.658,-18.659l0 -120.396c9.129,-2.364 16.295,-9.529 18.658,-18.658l45.22 0 75.177 0zm221.019 157.713c-2.363,-9.129 -9.528,-16.295 -18.657,-18.659l0 -120.396c9.129,-2.363 16.294,-9.529 18.657,-18.658l120.394 0c0.448,1.737 1.082,3.454 1.913,5.125 1.31,2.606 2.998,4.895 4.961,6.837l0.088 0.086c0.078,0.076 0.157,0.153 0.236,0.228 0.078,0.075 0.157,0.15 0.237,0.225l0.092 0.085c0.187,0.173 0.376,0.345 0.569,0.513l-62.852 125.705c-1.754,-0.376 -3.573,-0.578 -5.439,-0.584 -12.12,0.041 -22.255,8.288 -25.156,19.493l-35.043 0zm-170.708 0c-2.363,-9.129 -9.529,-16.295 -18.658,-18.659l0 -120.396c9.129,-2.363 16.295,-9.529 18.658,-18.658l120.397 0c2.364,9.129 9.529,16.295 18.658,18.658l0 120.396c-9.129,2.364 -16.294,9.53 -18.658,18.659l-120.397 0zm120.393 183.704c0.448,1.737 1.082,3.454 1.914,5.125 1.563,3.109 3.663,5.768 6.129,7.922l0.136 0.118 0.24 0.205c1.535,1.295 3.244,2.435 5.118,3.378 1.669,0.829 3.384,1.463 5.119,1.909l0.006 0.001 0 0.001 0 120.396c-9.129,2.364 -16.295,9.529 -18.658,18.658l-120.397 0c-2.363,-9.129 -9.529,-16.295 -18.658,-18.659l0 -120.396c9.129,-2.363 16.295,-9.529 18.658,-18.658l120.393 0zm-120.393 -12.995c-2.363,-9.129 -9.529,-16.296 -18.658,-18.659l0 -120.396c9.129,-2.364 16.295,-9.53 18.658,-18.659l120.397 0c2.364,9.129 9.529,16.295 18.658,18.659l0 120.396c-1.737,0.447 -3.454,1.08 -5.125,1.91 -1.874,0.943 -3.582,2.083 -5.118,3.379l-0.24 0.204 -0.136 0.118c-2.466,2.154 -4.566,4.813 -6.129,7.922 -0.832,1.671 -1.466,3.388 -1.914,5.126l-120.393 0zm339.508 -323.297c1.754,-3.529 2.633,-7.263 2.722,-10.959 0.002,-0.076 0.005,-0.152 0.006,-0.229l0.001 -0.098c0.058,-4.018 -0.815,-8.111 -2.729,-11.96 -1.264,-2.513 -2.879,-4.731 -4.754,-6.628l-0.068 -0.068c-0.1,-0.1 -0.2,-0.199 -0.302,-0.298l-0.225 -0.218 -0.153 -0.144c-0.125,-0.116 -0.25,-0.231 -0.376,-0.345l-0.015 -0.013c-1.689,-1.518 -3.604,-2.84 -5.73,-3.909 -3.858,-1.914 -7.957,-2.787 -11.98,-2.727 -0.092,0.001 -0.183,0.004 -0.276,0.006l-0.27 0.007c-3.616,0.121 -7.267,1 -10.721,2.714 -2.116,1.066 -4.024,2.382 -5.707,3.891l-0.049 0.045c-0.118,0.106 -0.235,0.213 -0.35,0.321l-0.173 0.163 -0.215 0.207c-0.103,0.1 -0.205,0.2 -0.306,0.302l-0.071 0.072c-1.873,1.895 -3.487,4.112 -4.752,6.622 -0.831,1.671 -1.465,3.388 -1.913,5.126l-120.393 0c-2.901,-11.205 -13.036,-19.452 -25.156,-19.493 -12.12,0.041 -22.255,8.288 -25.156,19.493l-120.396 0c-2.901,-11.205 -13.036,-19.452 -25.156,-19.493 -12.12,0.041 -22.255,8.288 -25.156,19.493l-75.177 0 -45.22 0c-2.901,-11.205 -13.036,-19.452 -25.156,-19.493 -14.365,0.048 -25.942,11.625 -25.99,25.99 0.041,12.12 8.288,22.255 19.492,25.156l0 120.396c-11.204,2.901 -19.451,13.037 -19.492,25.156 0.048,14.365 11.625,25.942 25.99,25.991 12.12,-0.041 22.255,-8.288 25.156,-19.493l45.22 0 75.176 0c2.364,9.129 9.53,16.294 18.659,18.658l0 120.397c-11.205,2.901 -19.452,13.036 -19.493,25.156 0.041,12.12 8.288,22.256 19.493,25.156l0 120.396c-11.205,2.901 -19.452,13.037 -19.493,25.156 0.049,14.365 11.625,25.942 25.991,25.991 12.12,-0.041 22.255,-8.288 25.156,-19.493l120.396 0c2.901,11.205 13.036,19.452 25.156,19.493 14.365,-0.049 25.942,-11.625 25.99,-25.991 -0.041,-12.12 -8.288,-22.255 -19.492,-25.156l0 -118.028 61.8 123.601c-5.458,4.757 -8.908,11.756 -8.934,19.583 0.048,14.366 11.625,25.942 25.99,25.991 12.12,-0.041 22.255,-8.288 25.156,-19.493l120.393 0c0.448,1.737 1.082,3.454 1.913,5.126 6.449,12.824 22.015,18.002 34.87,11.623 12.816,-6.457 18.013,-22.016 11.623,-34.87 -5.441,-10.819 -17.369,-16.195 -28.685,-13.783l-62.859 -125.718c5.458,-4.758 8.907,-11.757 8.934,-19.584 -0.027,-7.827 -3.476,-14.826 -8.934,-19.584l62.859 -125.718c11.316,2.412 23.244,-2.964 28.685,-13.783 6.39,-12.854 1.193,-28.413 -11.623,-34.87 -5.498,-2.728 -11.492,-3.341 -17.056,-2.147l-62.86 -125.72c0.193,-0.168 0.381,-0.34 0.568,-0.513l0.089 -0.082c0.081,-0.075 0.161,-0.151 0.241,-0.227l0.231 -0.225 0.096 -0.094c1.962,-1.94 3.648,-4.228 4.96,-6.831z"/>
  </g>
 </g>
</svg>
